# xmcd
#
# Track frame offsets: 
#        150
#        16765
#        30255
#        42230
#        59428
#        76860
#        89829
#        99429
#        116960
#        138002
#        153541
#        157453
#        177410
#        190071
#
# Disc length: 2751 seconds
#
# Revision: 0
# Processed by: cddbd v1.5.2PL0 Copyright (c) Steve Scherf et al.
# Submitted via: ExactAudioCopyFreeDBPlugin 1.0
#
DISCID=b40abd0e
DTITLE=Anelis Assumpção - Taurina
DYEAR=1900
DGENRE=
TTITLE0=Mergulho Interior
TTITLE1=Chá de Jasmim
TTITLE2=Segunda a Sexta
TTITLE3=Gosto Serena
TTITLE4=Pastel de Vento
TTITLE5=Escalafobética
TTITLE6=Caroço I
TTITLE7=Mortal à Toa
TTITLE8=Paint My Dreams
TTITLE9=Amor de Vidro
TTITLE10=Caroço II
TTITLE11=Água
TTITLE12=Moela
TTITLE13=Receita Rápida
EXTD=
EXTT0=
EXTT1=
EXTT2=
EXTT3=
EXTT4=
EXTT5=
EXTT6=
EXTT7=
EXTT8=
EXTT9=
EXTT10=
EXTT11=
EXTT12=
EXTT13=
PLAYORDER=
